<svg xmlns="http://www.w3.org/2000/svg" viewBox="0 0 1200 360" role="img" aria-label="Space, AI and cybersecurity command center">
  <defs>
    <linearGradient id="bg" x1="0" x2="1" y1="0" y2="1">
      <stop stop-color="#030712"/><stop offset=".52" stop-color="#0a1640"/><stop offset="1" stop-color="#071a20"/>
    </linearGradient>
    <radialGradient id="glow"><stop stop-color="#4df6ff" stop-opacity=".75"/><stop offset="1" stop-color="#4df6ff" stop-opacity="0"/></radialGradient>
    <filter id="blur"><feGaussianBlur stdDeviation="6"/></filter>
  </defs>
  <rect width="1200" height="360" fill="url(#bg)"/>
  <g fill="#d8fbff" opacity=".8">
    <circle cx="70" cy="45" r="1"/><circle cx="132" cy="90" r="1.5"/><circle cx="245" cy="36" r="1"/><circle cx="330" cy="130" r="1.2"/><circle cx="455" cy="55" r="1"/><circle cx="575" cy="105" r="1.5"/><circle cx="720" cy="42" r="1"/><circle cx="895" cy="92" r="1.3"/><circle cx="1070" cy="42" r="1"/><circle cx="1140" cy="155" r="1.5"/><circle cx="1040" cy="292" r="1"/><circle cx="770" cy="312" r="1.2"/>
  </g>
  <circle cx="930" cy="173" r="132" fill="url(#glow)" filter="url(#blur)"/>
  <g fill="none" stroke="#27e5ff" opacity=".55">
    <ellipse cx="930" cy="176" rx="196" ry="56" stroke-width="1.5"/>
    <ellipse cx="930" cy="176" rx="116" ry="169" stroke-width="1"/>
    <circle cx="930" cy="176" r="71" stroke-width="1.5"/>
  </g>
  <circle cx="930" cy="176" r="49" fill="#102a57" stroke="#75f6ff" stroke-width="2"/>
  <path d="M900 170h60M930 146v60M910 154l40 44M950 154l-40 44" stroke="#8c5cff" stroke-width="2" opacity=".9"/>
  <g stroke="#37f3b0" fill="none" stroke-width="1.3" opacity=".75">
    <path d="M50 276H165l28-28h87l35-35h115"/>
    <path d="M70 300h85l25-25h70l30 30h102"/>
    <path d="M432 170h85l22-22h104l28 28h84"/>
  </g>
  <g fill="#37f3b0">
    <circle cx="165" cy="276" r="4"/><circle cx="193" cy="248" r="4"/><circle cx="315" cy="213" r="4"/><circle cx="155" cy="300" r="4"/><circle cx="280" cy="305" r="4"/><circle cx="517" cy="170" r="4"/><circle cx="643" cy="148" r="4"/>
  </g>
  <g fill="#7cf7ff" font-family="monospace">
    <text x="58" y="93" font-size="17" letter-spacing="4">VIHO-KERNEL // ORBITAL SYSTEMS</text>
    <text x="58" y="140" font-size="38" font-weight="700">CLOUD · AI · CYBERSECURITY</text>
    <text x="60" y="178" font-size="15" fill="#9fb8d8">Automating infrastructure. Defending systems. Exploring intelligent platforms.</text>
    <text x="60" y="222" font-size="13" fill="#37f3b0">[ STATUS: BUILDING THE NEXT LAYER ]</text>
  </g>
</svg>