<svg xmlns="http://www.w3.org/2000/svg" viewBox="0 0 1200 360"><defs><linearGradient id="c" x1="0" y1="0" x2="1" y2="1"><stop stop-color="#080a18"/><stop offset=".6" stop-color="#17113d"/><stop offset="1" stop-color="#0c3650"/></linearGradient><filter id="f"><feGaussianBlur stdDeviation="4"/></filter></defs><rect width="1200" height="360" fill="url(#c)"/><g stroke="#5de4ff" fill="none" stroke-opacity=".55"><path d="M720 55L850 115 970 62 1100 140 1015 262 850 300 730 240z"/><path d="M720 55L730 240M850 115L850 300M970 62L1015 262M1100 140L850 115M1015 262L850 115"/></g><g fill="#ab8cff"><circle cx="720" cy="55" r="7"/><circle cx="850" cy="115" r="10"/><circle cx="970" cy="62" r="7"/><circle cx="1100" cy="140" r="8"/><circle cx="1015" cy="262" r="8"/><circle cx="850" cy="300" r="7"/><circle cx="730" cy="240" r="8"/></g><circle cx="850" cy="115" r="35" fill="#5de4ff" opacity=".32" filter="url(#f)"/><text x="58" y="97" fill="#5de4ff" font-family="monospace" font-size="15" letter-spacing="5">NEURAL INFRASTRUCTURE LAB</text><text x="57" y="159" fill="#f0edff" font-family="sans-serif" font-size="44" font-weight="700">BUILD. THINK. DEFEND.</text><text x="60" y="205" fill="#b9bee8" font-family="monospace" font-size="18">AI × CLOUD × CYBERSECURITY</text><text x="60" y="263" fill="#ab8cff" font-family="monospace" font-size="14">SAI VIHARI REDDY // VIHO-KERNEL</text></svg>